<svg width="81" height="88" viewBox="0 0 81 88" fill="none" xmlns="http://www.w3.org/2000/svg">
<mask id="mask0_11_111" style="mask-type:alpha" maskUnits="userSpaceOnUse" x="0" y="0" width="81" height="88">
<rect width="80.5273" height="88" fill="#D9D9D9"/>
</mask>
<g mask="url(#mask0_11_111)">
<path d="M40.2637 73.3334C37.5794 71.0112 34.6715 69.2084 31.5399 67.925C28.4083 66.6417 25.1648 66 21.8095 66C19.4608 66 17.154 66.3362 14.8892 67.0084C12.6244 67.6806 10.4574 68.6278 8.3883 69.85C7.21395 70.5223 6.08153 70.4917 4.99106 69.7584C3.90058 69.025 3.35535 67.9556 3.35535 66.55V22.3667C3.35535 21.6945 3.50913 21.0528 3.8167 20.4417C4.12427 19.8306 4.58562 19.3723 5.20076 19.0667C7.77316 17.6 10.4574 16.5 13.2535 15.7667C16.0496 15.0334 18.9016 14.6667 21.8095 14.6667C25.053 14.6667 28.2265 15.125 31.3302 16.0417C34.4338 16.9584 37.4117 18.3334 40.2637 20.1667V64.5334C43.1157 62.5778 46.1075 61.1112 49.2391 60.1334C52.3707 59.1556 55.5303 58.6667 58.7178 58.6667C60.731 58.6667 62.7023 58.85 64.6316 59.2167C66.5609 59.5834 68.5041 60.1334 70.4614 60.8667V16.8667C71.3002 17.1723 72.1251 17.4931 72.9359 17.8292C73.7468 18.1653 74.5437 18.5778 75.3266 19.0667C75.9417 19.3723 76.4031 19.8306 76.7107 20.4417C77.0182 21.0528 77.172 21.6945 77.172 22.3667V66.55C77.172 67.9556 76.6268 69.025 75.5363 69.7584C74.4458 70.4917 73.3134 70.5223 72.1391 69.85C70.07 68.6278 67.903 67.6806 65.6382 67.0084C63.3733 66.3362 61.0666 66 58.7178 66C55.3625 66 52.1191 66.6417 48.9875 67.925C45.8559 69.2084 42.9479 71.0112 40.2637 73.3334ZM46.9743 55V20.1667L63.7508 1.83337V38.5L46.9743 55ZM33.5531 60.9584V24.6584C31.7077 23.8028 29.7923 23.1459 27.8071 22.6875C25.8219 22.2292 23.8227 22 21.8095 22C19.7404 22 17.7272 22.2139 15.77 22.6417C13.8127 23.0695 11.9114 23.7112 10.066 24.5667V60.9584C12.0232 60.1639 13.9665 59.5834 15.8958 59.2167C17.8251 58.85 19.7963 58.6667 21.8095 58.6667C23.8227 58.6667 25.7939 58.85 27.7232 59.2167C29.6525 59.5834 31.5958 60.1639 33.5531 60.9584Z" fill="#94B0ED"/>
</g>
</svg>
